<?xml version="1.0" encoding="UTF-8" standalone="no"?><!DOCTYPE svg PUBLIC "-//W3C//DTD SVG 1.1//EN" "http://www.w3.org/Graphics/SVG/1.1/DTD/svg11.dtd"><svg width="100%" height="100%" viewBox="0 0 24 24" version="1.1" xmlns="http://www.w3.org/2000/svg" xmlns:xlink="http://www.w3.org/1999/xlink" xml:space="preserve" xmlns:serif="http://www.serif.com/" style="fill-rule:evenodd;clip-rule:evenodd;stroke-linecap:round;stroke-linejoin:round;"><path d="M9,19c-5,1.5 -5,-2.5 -7,-3m14,6l0,-3.87c0.076,-0.964 -0.267,-1.916 -0.94,-2.61c3.14,-0.35 6.44,-1.54 6.44,-7c0,-1.396 -0.538,-2.739 -1.5,-3.75c0.456,-1.221 0.423,-2.572 -0.09,-3.77c-0.513,-1.198 -1.18,-0.35 -3.91,1.48c-2.292,-0.621 -4.708,-0.621 -7,0c-2.73,-1.83 -3.91,-1.48 -3.91,-1.48c-0.513,1.198 -0.546,2.549 -0.09,3.77c-0.97,1.018 -1.507,2.374 -1.5,3.78c0,5.42 3.3,6.61 6.44,7c-0.665,0.687 -1.007,1.626 -0.94,2.58l0,3.87" style="fill:none;fill-rule:nonzero;stroke:#fff;stroke-width:2px;"/></svg>