<svg viewBox="0 0 24 24" xmlns="http://www.w3.org/2000/svg" fill-rule="evenodd" clip-rule="evenodd" stroke-linecap="round" stroke-linejoin="round"><path d="M9 19c-5 1.5-5-2.5-7-3m14 6v-3.87a3.371 3.371 0 00-.94-2.61c3.14-.35 6.44-1.54 6.44-7A5.442 5.442 0 0020 4.77 5.072 5.072 0 0019.91 1C19.397-.198 18.73.65 16 2.48a13.384 13.384 0 00-7 0C6.27.65 5.09 1 5.09 1A5.072 5.072 0 005 4.77a5.441 5.441 0 00-1.5 3.78c0 5.42 3.3 6.61 6.44 7A3.372 3.372 0 009 18.13V22" fill="none" stroke="#fff" stroke-width="2"/></svg>